<svg height="483pt" viewBox="-1 0 483 483.312" width="483pt" xmlns="http://www.w3.org/2000/svg"><path d="m344.15625 157.65625h-208c0 26.507812-21.492188 48-48 48v64c26.507812 0 48 21.488281 48 48h208c0-26.511719 21.488281-48 48-48v-64c-26.511719 0-48-21.492188-48-48zm0 0" fill="#0b7"/><g fill="#00665a"><path d="m392.15625 205.65625v-40c0-4.417969-3.582031-8-8-8h-40c0 26.507812 21.488281 48 48 48zm0 0"/><path d="m344.15625 317.65625h40c4.417969 0 8-3.582031 8-8v-40c-26.511719 0-48 21.488281-48 48zm0 0"/><path d="m88.15625 165.65625v40c26.507812 0 48-21.492188 48-48h-40c-4.417969 0-8 3.582031-8 8zm0 0"/><path d="m88.15625 269.65625v40c0 4.417969 3.582031 8 8 8h40c0-26.511719-21.492188-48-48-48zm0 0"/></g><path d="m240.15625 245.65625c4.417969 0 8 3.582031 8 8s-3.582031 8-8 8-8-3.582031-8-8h-16c.042969 10.132812 6.445312 19.148438 16 22.527344v17.472656h16v-17.472656c11.011719-3.878906 17.621094-15.132813 15.644531-26.640625-1.980469-11.507813-11.96875-19.910157-23.644531-19.886719-4.417969 0-8-3.582031-8-8s3.582031-8 8-8 8 3.582031 8 8h16c-.042969-10.132812-6.445312-19.148438-16-22.527344v-17.472656h-16v17.472656c-11.011719 3.878906-17.621094 15.132813-15.644531 26.640625 1.980469 11.507813 11.96875 19.910157 23.644531 19.886719zm0 0"/><path d="m258.757812 22.367188 11.054688-11.054688-11.3125-11.3125-24 24c-3.125 3.125-3.125 8.1875 0 11.3125l24 24 11.3125-11.3125-9.496094-9.496094c114.105469 9.136719 203.839844 94.945313 203.839844 199.152344 0 99.566406-83.199219 184.800781-193.519531 198.160156l1.925781 15.886719c118.34375-14.382813 207.59375-106.398437 207.59375-214.046875 0-113.464844-97.726562-206.703125-221.398438-215.289062zm0 0"/><path d="m80.15625 165.65625v144c0 8.835938 7.164062 16 16 16h288c8.835938 0 16-7.164062 16-16v-144c0-8.835938-7.164062-16-16-16h-288c-8.835938 0-16 7.164062-16 16zm16 0h31.199219c-3.230469 15.699219-15.5 27.96875-31.199219 31.199219zm288 47.359375v49.28125c-24.527344 3.566406-43.792969 22.832031-47.359375 47.359375h-193.28125c-3.566406-24.527344-22.832031-43.792969-47.359375-47.359375v-49.28125c24.527344-3.566406 43.792969-22.832031 47.359375-47.359375h193.28125c3.566406 24.527344 22.832031 43.792969 47.359375 47.359375zm-288 96.640625v-31.199219c15.699219 3.230469 27.96875 15.5 31.199219 31.199219zm288 0h-31.199219c3.230469-15.699219 15.5-27.96875 31.199219-31.199219zm0-112.800781c-15.703125-3.226563-27.972656-15.496094-31.199219-31.199219h31.199219zm0 0"/><path d="m213.8125 408-11.3125 11.3125 17.496094 17.496094c-114.105469-9.136719-203.839844-94.945313-203.839844-199.152344 0-99.121094 82.769531-184.257812 192.527344-198.039062l-1.992188-15.875c-117.734375 14.777343-206.535156 106.714843-206.535156 213.914062 0 113.464844 97.726562 206.703125 221.398438 215.289062l-19.054688 19.054688 11.3125 11.3125 32-32c3.121094-3.125 3.121094-8.1875 0-11.3125zm0 0"/></svg>